<?xml version="1.0" encoding="UTF-8"?>
<svg xmlns="http://www.w3.org/2000/svg" width="854.42098" height="477.04552" version="1.1" viewBox="0 0 854.42098 477.04552">
  <defs>
    <style>
      .cls-1 {
        fill: #231815;
      }
    </style>
  </defs>
  <!-- Generator: Adobe Illustrator 28.7.8, SVG Export Plug-In . SVG Version: 1.2.0 Build 200)  -->
  <g>
    <g id="_レイヤー_1" data-name="レイヤー_1">
      <path class="cls-1" d="M228.49174,205.72442l51.58203-68.88281c2.3291-3.40527,5.64209-5.1123,9.94336-5.1123h6.17578c3.40576,0,6.31494,1.21094,8.73242,3.63232,2.41748,2.42188,3.62842,5.33936,3.62842,8.74512v166.28809c0,3.40918-1.19824,6.32324-3.59473,8.74414-2.39648,2.42188-5.27637,3.63281-8.64844,3.63281-3.54834,0-6.52051-1.21094-8.91699-3.63281-2.39648-2.4209-3.50635-5.33496-3.32568-8.74414v-103.3252c0-3.04785-.81152-5.604-2.42578-7.66846-1.61865-2.06006-3.59473-3.49805-5.93213-4.30518-2.33789-.80713-4.81006-.84912-7.4165-.13428-2.60645.71875-4.80957,2.24463-6.60498,4.57422l-33.16309,43.85889c-1.26123,1.61523-2.74561,2.87207-4.45264,3.76758-1.70654.89941-3.50635,1.34473-5.38965,1.34473-1.8877,0-3.729-.44531-5.52881-1.34473-1.79932-.89551-3.32568-2.15234-4.58252-3.76758l-32.89404-43.85889c-1.7998-2.32959-3.99854-3.80908-6.60498-4.43994-2.60693-.62646-5.07861-.58008-7.4165.13477-2.3374.71875-4.31787,2.11035-5.93213,4.17041-1.61865,2.06445-2.42578,4.62061-2.42578,7.66846v103.3252c0,3.40918-1.19824,6.32324-3.59473,8.74414-2.39648,2.42188-5.27637,3.63281-8.64844,3.63281-3.54834,0-6.47852-1.21094-8.78271-3.63281-2.30811-2.4209-3.45996-5.33496-3.45996-8.74414v-166.28809c0-3.40576,1.16455-6.32324,3.49365-8.74512,2.3291-2.42139,5.28516-3.63232,8.86719-3.63232h6.17578c4.12012,0,7.43311,1.70703,9.94336,5.1123l51.31689,68.88281c1.25293,1.61426,2.7749,2.8252,4.56592,3.63232,1.79102.80762,3.62402,1.21094,5.50781,1.21094,1.87939,0,3.67041-.40332,5.37305-1.21094,1.69824-.80713,3.17822-2.01807,4.43555-3.63232ZM370.97758,173.97393v22.06396c0,3.59033,1.29932,6.68457,3.90186,9.28271,2.59814,2.60254,5.69238,3.90186,9.28271,3.90186h41.4375c3.58545,0,6.68115,1.30322,9.28271,3.90137,2.59766,2.60254,3.90234,5.69678,3.90234,9.2832,0,3.59033-1.30469,6.68457-3.90234,9.2832-2.60156,2.60205-5.69727,3.90137-9.28271,3.90137h-41.4375c-3.59033,0-6.68457,1.30322-9.28271,3.90137-2.60254,2.60303-3.90186,5.69775-3.90186,9.28369v34.44141c0,3.59082,1.29932,6.68457,3.90186,9.2832,2.59814,2.60254,5.69238,3.90137,9.28271,3.90137h41.4375c3.58545,0,6.68115,1.30371,9.28271,3.90137,2.59766,2.60254,3.90234,5.69727,3.90234,9.2832,0,3.59082-1.30469,6.68457-3.90234,9.2832-2.60156,2.60254-5.69727,3.90137-9.28271,3.90137h-67.80664c-3.59033,0-6.68457-1.29883-9.28271-3.90137-2.60254-2.59863-3.90186-5.69238-3.90186-9.2832v-161.98242c0-3.58643,1.29932-6.68066,3.90186-9.2832,2.59814-2.59814,5.69238-3.90137,9.28271-3.90137h67.80664c3.58545,0,6.68115,1.30322,9.28271,3.90137,2.59766,2.60254,3.90234,5.69678,3.90234,9.2832,0,3.59033-1.30469,6.68457-3.90234,9.28271-2.60156,2.60254-5.69727,3.90186-9.28271,3.90186h-41.4375c-3.59033,0-6.68457,1.30322-9.28271,3.90137-2.60254,2.60254-3.90186,5.69678-3.90186,9.2832ZM593.49955,310.39483c0,3.58984-1.16797,6.5498-3.49805,8.87891-2.33203,2.33301-5.20312,3.49805-8.60938,3.49805h-94.17578c-3.58984,0-6.55078-1.16504-8.87891-3.49805-2.33398-2.3291-3.49805-5.28906-3.49805-8.87891v-163.59766c0-3.58594,1.16406-6.5459,3.49805-8.87939,2.32812-2.3291,5.28906-3.49756,8.87891-3.49756,3.40625,0,6.27734,1.16846,8.61133,3.49756,2.32812,2.3335,3.49609,5.29346,3.49609,8.87939v139.11133c0,3.41016,1.21094,6.32324,3.63281,8.74512s5.33594,3.63281,8.74609,3.63281h69.68945c3.40625,0,6.27734,1.16895,8.60938,3.49805,2.33008,2.33301,3.49805,5.2041,3.49805,8.61035ZM737.18315,146.79718c0,3.40967-1.21094,6.28125-3.63281,8.61035-2.42188,2.3335-5.33984,3.49805-8.74609,3.49805h-46.81836c-3.41016,0-6.28125,1.21094-8.60938,3.63281-2.33398,2.42139-3.49805,5.33936-3.49805,8.74463v139.11182c0,3.58984-1.21094,6.5498-3.63281,8.87891-2.42188,2.33301-5.33984,3.49805-8.74609,3.49805-3.4082,0-6.2793-1.16504-8.60938-3.49805-2.33398-2.3291-3.49805-5.28906-3.49805-8.87891v-139.11182c0-3.40527-1.21094-6.32324-3.63281-8.74463-2.42188-2.42188-5.33984-3.63281-8.74414-3.63281h-43.05273c-3.4082,0-6.28125-1.16455-8.60938-3.49805-2.33398-2.3291-3.49805-5.20068-3.49805-8.61035,0-3.58594,1.16406-6.5459,3.49805-8.87939,2.32812-2.3291,5.20117-3.49756,8.60938-3.49756h138.8418c3.40625,0,6.32422,1.16846,8.74609,3.49756,2.42188,2.3335,3.63281,5.29346,3.63281,8.87939Z"/>
    </g>
  </g>
</svg>