<?xml version="1.0" encoding="UTF-8"?>
<svg xmlns="http://www.w3.org/2000/svg" width="1080" height="1350" version="1.1" viewBox="0 0 1080 1350">
  <defs>
    <style>
      .cls-1 {
        fill: #fff;
      }
    </style>
  </defs>
  <!-- Generator: Adobe Illustrator 28.7.8, SVG Export Plug-In . SVG Version: 1.2.0 Build 200)  -->
  <g>
    <g id="_レイヤー_1" data-name="レイヤー_1">
      <path class="cls-1" d="M135.801,254.336h135.175v222.441h2.65c15.012-22.073,32.903-39.095,53.672-51.021,20.748-11.927,44.395-17.891,70.9-17.891,32.675,0,58.082,5.756,76.201,17.228,18.098,11.492,32.903,26.07,44.395,43.733,8.821,14.143,14.578,32.696,17.228,55.66,2.65,22.985,3.976,58.766,3.976,107.345v255.771c0,37.106-1.781,66.717-5.301,88.792-3.541,22.093-9.276,40.647-17.228,55.659-22.984,42.409-62.286,63.612-117.946,63.612-33.586,0-59.201-6.625-76.864-19.878-17.684-13.252-34.912-29.59-51.684-49.034v60.961h-135.175V254.336ZM404.825,622.554c0-21.204-4.638-39.757-13.915-55.66-9.277-15.903-26.733-23.855-52.347-23.855-19.444,0-35.575,6.854-48.372,20.541-12.817,13.708-19.215,31.144-19.215,52.346v261.073c0,24.745,6.17,44.851,18.553,60.299,12.362,15.468,28.7,23.191,49.034,23.191,22.964,0,39.757-8.386,50.359-25.179,10.602-16.773,15.903-38.867,15.903-66.262v-246.495ZM809.025,1026.751c-8.843,9.733-17.229,18.782-25.181,27.167-7.951,8.407-16.794,15.695-26.505,21.867-9.731,6.192-20.768,11.057-33.13,14.578-12.383,3.521-26.961,5.301-43.733,5.301-55.66,0-94.983-21.203-117.946-63.612-7.952-15.012-13.709-33.566-17.228-55.659-3.542-22.075-5.302-51.686-5.302-88.792v-255.771c0-48.578,1.326-84.36,3.976-107.345,2.65-22.964,8.387-41.517,17.228-55.66,11.472-17.663,26.277-32.241,44.395-43.733,18.098-11.472,43.505-17.228,76.203-17.228,26.504,0,50.131,5.964,70.9,17.891,20.747,11.927,38.638,28.948,53.671,51.021h2.652v-222.441h135.174v833.376h-135.174v-60.961ZM675.175,869.049c0,27.395,5.301,49.489,15.902,66.262,10.603,16.794,27.375,25.179,50.36,25.179,20.313,0,36.651-7.723,49.034-23.191,12.362-15.448,18.554-35.554,18.554-60.299v-261.073c0-21.203-6.42-38.638-19.216-52.346-12.817-13.687-28.949-20.541-48.372-20.541-25.635,0-43.071,7.952-52.346,23.855-9.277,15.903-13.915,34.456-13.915,55.66v246.495Z"/>
    </g>
  </g>
</svg>